STARTFONT 2.1
FONT -nokia-nokia-medium-r-normal--10-100-75-75-p-40-iso10646-1
SIZE 10 75 75
FONTBOUNDINGBOX 10 10 0 -2
STARTPROPERTIES 2
FONT_ASCENT 8
FONT_DESCENT 2
ENDPROPERTIES
CHARS 102
STARTCHAR U+0020
ENCODING 32
SWIDTH 400 0
DWIDTH 4
BBX 3 10 0 -2
BITMAP
00
00
00
00
00
00
00
00
00
00
ENDCHAR
STARTCHAR U+0021
ENCODING 33
SWIDTH 200 0
DWIDTH 2
BBX 1 10 0 -2
BITMAP
00
80
80
80
80
80
00
80
00
00
ENDCHAR
STARTCHAR U+0022
ENCODING 34
SWIDTH 400 0
DWIDTH 4
BBX 3 10 0 -2
BITMAP
00
A0
A0
00
00
00
00
00
00
00
ENDCHAR
STARTCHAR U+0023
ENCODING 35
SWIDTH 600 0
DWIDTH 6
BBX 5 10 0 -2
BITMAP
00
50
50
F8
50
50
F8
50
50
00
ENDCHAR
STARTCHAR U+0024
ENCODING 36
SWIDTH 500 0
DWIDTH 5
BBX 4 10 0 -2
BITMAP
00
20
70
A0
E0
70
30
E0
20
00
ENDCHAR
STARTCHAR U+0025
ENCODING 37
SWIDTH 500 0
DWIDTH 5
BBX 4 10 0 -2
BITMAP
00
D0
D0
20
60
40
B0
B0
00
00
ENDCHAR
STARTCHAR U+0026
ENCODING 38
SWIDTH 600 0
DWIDTH 6
BBX 5 10 0 -2
BITMAP
00
40
A0
A0
40
A8
90
68
00
00
ENDCHAR
STARTCHAR U+0027
ENCODING 39
SWIDTH 200 0
DWIDTH 2
BBX 1 10 0 -2
BITMAP
00
80
80
00
00
00
00
00
00
00
ENDCHAR
STARTCHAR U+0028
ENCODING 40
SWIDTH 300 0
DWIDTH 3
BBX 2 10 0 -2
BITMAP
00
40
80
80
80
80
80
80
40
00
ENDCHAR
STARTCHAR U+0029
ENCODING 41
SWIDTH 300 0
DWIDTH 3
BBX 2 10 0 -2
BITMAP
00
80
40
40
40
40
40
40
80
00
ENDCHAR
STARTCHAR U+002A
ENCODING 42
SWIDTH 600 0
DWIDTH 6
BBX 5 10 0 -2
BITMAP
00
00
50
20
F8
20
50
00
00
00
ENDCHAR
STARTCHAR U+002B
ENCODING 43
SWIDTH 600 0
DWIDTH 6
BBX 5 10 0 -2
BITMAP
00
00
20
20
F8
20
20
00
00
00
ENDCHAR
STARTCHAR U+002C
ENCODING 44
SWIDTH 300 0
DWIDTH 3
BBX 2 10 0 -2
BITMAP
00
00
00
00
00
00
00
40
80
00
ENDCHAR
STARTCHAR U+002D
ENCODING 45
SWIDTH 500 0
DWIDTH 5
BBX 4 10 0 -2
BITMAP
00
00
00
00
F0
00
00
00
00
00
ENDCHAR
STARTCHAR U+002E
ENCODING 46
SWIDTH 200 0
DWIDTH 2
BBX 1 10 0 -2
BITMAP
00
00
00
00
00
00
00
80
00
00
ENDCHAR
STARTCHAR U+002F
ENCODING 47
SWIDTH 400 0
DWIDTH 4
BBX 3 10 0 -2
BITMAP
00
20
20
40
40
40
80
80
00
00
ENDCHAR
STARTCHAR U+0030
ENCODING 48
SWIDTH 500 0
DWIDTH 5
BBX 4 10 0 -2
BITMAP
00
60
90
90
90
90
90
60
00
00
ENDCHAR
STARTCHAR U+0031
ENCODING 49
SWIDTH 500 0
DWIDTH 5
BBX 4 10 0 -2
BITMAP
00
20
60
20
20
20
20
20
00
00
ENDCHAR
STARTCHAR U+0032
ENCODING 50
SWIDTH 500 0
DWIDTH 5
BBX 4 10 0 -2
BITMAP
00
E0
10
10
60
80
80
F0
00
00
ENDCHAR
STARTCHAR U+0033
ENCODING 51
SWIDTH 500 0
DWIDTH 5
BBX 4 10 0 -2
BITMAP
00
E0
10
10
60
10
10
E0
00
00
ENDCHAR
STARTCHAR U+0034
ENCODING 52
SWIDTH 500 0
DWIDTH 5
BBX 4 10 0 -2
BITMAP
00
10
30
50
90
F0
10
10
00
00
ENDCHAR
STARTCHAR U+0035
ENCODING 53
SWIDTH 500 0
DWIDTH 5
BBX 4 10 0 -2
BITMAP
00
E0
80
E0
10
10
10
E0
00
00
ENDCHAR
STARTCHAR U+0036
ENCODING 54
SWIDTH 500 0
DWIDTH 5
BBX 4 10 0 -2
BITMAP
00
60
80
E0
90
90
90
60
00
00
ENDCHAR
STARTCHAR U+0037
ENCODING 55
SWIDTH 500 0
DWIDTH 5
BBX 4 10 0 -2
BITMAP
00
F0
10
20
20
40
40
40
00
00
ENDCHAR
STARTCHAR U+0038
ENCODING 56
SWIDTH 500 0
DWIDTH 5
BBX 4 10 0 -2
BITMAP
00
60
90
90
60
90
90
60
00
00
ENDCHAR
STARTCHAR U+0039
ENCODING 57
SWIDTH 500 0
DWIDTH 5
BBX 4 10 0 -2
BITMAP
00
60
90
90
90
70
10
60
00
00
ENDCHAR
STARTCHAR U+003A
ENCODING 58
SWIDTH 200 0
DWIDTH 2
BBX 1 10 0 -2
BITMAP
00
00
00
00
80
00
00
80
00
00
ENDCHAR
STARTCHAR U+003B
ENCODING 59
SWIDTH 300 0
DWIDTH 3
BBX 2 10 0 -2
BITMAP
00
00
00
00
40
00
00
40
80
00
ENDCHAR
STARTCHAR U+003C
ENCODING 60
SWIDTH 500 0
DWIDTH 5
BBX 4 10 0 -2
BITMAP
00
10
20
40
80
40
20
10
00
00
ENDCHAR
STARTCHAR U+003D
ENCODING 61
SWIDTH 500 0
DWIDTH 5
BBX 4 10 0 -2
BITMAP
00
00
00
00
F0
00
F0
00
00
00
ENDCHAR
STARTCHAR U+003E
ENCODING 62
SWIDTH 500 0
DWIDTH 5
BBX 4 10 0 -2
BITMAP
00
80
40
20
10
20
40
80
00
00
ENDCHAR
STARTCHAR U+003F
ENCODING 63
SWIDTH 500 0
DWIDTH 5
BBX 4 10 0 -2
BITMAP
00
E0
10
20
40
40
00
40
00
00
ENDCHAR
STARTCHAR U+0040
ENCODING 64
SWIDTH 600 0
DWIDTH 6
BBX 5 10 0 -2
BITMAP
00
70
88
B8
D8
B0
88
70
00
00
ENDCHAR
STARTCHAR U+0041
ENCODING 65
SWIDTH 500 0
DWIDTH 5
BBX 4 10 0 -2
BITMAP
00
60
90
90
90
F0
90
90
00
00
ENDCHAR
STARTCHAR U+0042
ENCODING 66
SWIDTH 500 0
DWIDTH 5
BBX 4 10 0 -2
BITMAP
00
E0
90
E0
90
90
90
E0
00
00
ENDCHAR
STARTCHAR U+0043
ENCODING 67
SWIDTH 500 0
DWIDTH 5
BBX 4 10 0 -2
BITMAP
00
70
80
80
80
80
80
70
00
00
ENDCHAR
STARTCHAR U+0044
ENCODING 68
SWIDTH 500 0
DWIDTH 5
BBX 4 10 0 -2
BITMAP
00
E0
90
90
90
90
90
E0
00
00
ENDCHAR
STARTCHAR U+0045
ENCODING 69
SWIDTH 500 0
DWIDTH 5
BBX 4 10 0 -2
BITMAP
00
F0
80
E0
80
80
80
F0
00
00
ENDCHAR
STARTCHAR U+0046
ENCODING 70
SWIDTH 500 0
DWIDTH 5
BBX 4 10 0 -2
BITMAP
00
F0
80
E0
80
80
80
80
00
00
ENDCHAR
STARTCHAR U+0047
ENCODING 71
SWIDTH 500 0
DWIDTH 5
BBX 4 10 0 -2
BITMAP
00
70
80
B0
90
90
90
70
00
00
ENDCHAR
STARTCHAR U+0048
ENCODING 72
SWIDTH 500 0
DWIDTH 5
BBX 4 10 0 -2
BITMAP
00
90
90
F0
90
90
90
90
00
00
ENDCHAR
STARTCHAR U+0049
ENCODING 73
SWIDTH 200 0
DWIDTH 2
BBX 1 10 0 -2
BITMAP
00
80
80
80
80
80
80
80
00
00
ENDCHAR
STARTCHAR U+004A
ENCODING 74
SWIDTH 400 0
DWIDTH 4
BBX 3 10 0 -2
BITMAP
00
20
20
20
20
20
20
C0
00
00
ENDCHAR
STARTCHAR U+004B
ENCODING 75
SWIDTH 500 0
DWIDTH 5
BBX 4 10 0 -2
BITMAP
00
90
A0
C0
80
C0
A0
90
00
00
ENDCHAR
STARTCHAR U+004C
ENCODING 76
SWIDTH 500 0
DWIDTH 5
BBX 4 10 0 -2
BITMAP
00
80
80
80
80
80
80
F0
00
00
ENDCHAR
STARTCHAR U+004D
ENCODING 77
SWIDTH 600 0
DWIDTH 6
BBX 5 10 0 -2
BITMAP
00
88
D8
A8
A8
88
88
88
00
00
ENDCHAR
STARTCHAR U+004E
ENCODING 78
SWIDTH 600 0
DWIDTH 6
BBX 5 10 0 -2
BITMAP
00
88
C8
A8
98
88
88
88
00
00
ENDCHAR
STARTCHAR U+004F
ENCODING 79
SWIDTH 600 0
DWIDTH 6
BBX 5 10 0 -2
BITMAP
00
70
88
88
88
88
88
70
00
00
ENDCHAR
STARTCHAR U+0050
ENCODING 80
SWIDTH 500 0
DWIDTH 5
BBX 4 10 0 -2
BITMAP
00
E0
90
90
90
E0
80
80
00
00
ENDCHAR
STARTCHAR U+0051
ENCODING 81
SWIDTH 600 0
DWIDTH 6
BBX 5 10 0 -2
BITMAP
00
70
88
88
88
88
A8
70
08
00
ENDCHAR
STARTCHAR U+0052
ENCODING 82
SWIDTH 500 0
DWIDTH 5
BBX 4 10 0 -2
BITMAP
00
E0
90
90
90
E0
A0
90
00
00
ENDCHAR
STARTCHAR U+0053
ENCODING 83
SWIDTH 500 0
DWIDTH 5
BBX 4 10 0 -2
BITMAP
00
70
80
80
60
10
10
E0
00
00
ENDCHAR
STARTCHAR U+0054
ENCODING 84
SWIDTH 600 0
DWIDTH 6
BBX 5 10 0 -2
BITMAP
00
F8
20
20
20
20
20
20
00
00
ENDCHAR
STARTCHAR U+0055
ENCODING 85
SWIDTH 500 0
DWIDTH 5
BBX 4 10 0 -2
BITMAP
00
90
90
90
90
90
90
60
00
00
ENDCHAR
STARTCHAR U+0056
ENCODING 86
SWIDTH 600 0
DWIDTH 6
BBX 5 10 0 -2
BITMAP
00
88
88
88
50
50
20
20
00
00
ENDCHAR
STARTCHAR U+0057
ENCODING 87
SWIDTH 800 0
DWIDTH 8
BBX 7 10 0 -2
BITMAP
00
82
82
44
54
54
28
28
00
00
ENDCHAR
STARTCHAR U+0058
ENCODING 88
SWIDTH 600 0
DWIDTH 6
BBX 5 10 0 -2
BITMAP
00
88
88
50
20
50
88
88
00
00
ENDCHAR
STARTCHAR U+0059
ENCODING 89
SWIDTH 600 0
DWIDTH 6
BBX 5 10 0 -2
BITMAP
00
88
88
50
20
20
20
20
00
00
ENDCHAR
STARTCHAR U+005A
ENCODING 90
SWIDTH 500 0
DWIDTH 5
BBX 4 10 0 -2
BITMAP
00
F0
10
20
40
80
80
F0
00
00
ENDCHAR
STARTCHAR U+005B
ENCODING 91
SWIDTH 300 0
DWIDTH 3
BBX 2 10 0 -2
BITMAP
00
C0
80
80
80
80
80
80
C0
00
ENDCHAR
STARTCHAR U+005C
ENCODING 92
SWIDTH 400 0
DWIDTH 4
BBX 3 10 0 -2
BITMAP
00
80
80
40
40
40
20
20
00
00
ENDCHAR
STARTCHAR U+005D
ENCODING 93
SWIDTH 300 0
DWIDTH 3
BBX 2 10 0 -2
BITMAP
00
C0
40
40
40
40
40
40
C0
00
ENDCHAR
STARTCHAR U+005E
ENCODING 94
SWIDTH 400 0
DWIDTH 4
BBX 3 10 0 -2
BITMAP
00
40
A0
00
00
00
00
00
00
00
ENDCHAR
STARTCHAR U+005F
ENCODING 95
SWIDTH 500 0
DWIDTH 5
BBX 5 10 0 -2
BITMAP
00
00
00
00
00
00
00
00
F8
00
ENDCHAR
STARTCHAR U+0060
ENCODING 96
SWIDTH 300 0
DWIDTH 3
BBX 2 10 0 -2
BITMAP
00
80
40
00
00
00
00
00
00
00
ENDCHAR
STARTCHAR U+0061
ENCODING 97
SWIDTH 500 0
DWIDTH 5
BBX 4 10 0 -2
BITMAP
00
00
00
60
10
70
90
70
00
00
ENDCHAR
STARTCHAR U+0062
ENCODING 98
SWIDTH 500 0
DWIDTH 5
BBX 4 10 0 -2
BITMAP
00
80
80
E0
90
90
90
E0
00
00
ENDCHAR
STARTCHAR U+0063
ENCODING 99
SWIDTH 400 0
DWIDTH 4
BBX 3 10 0 -2
BITMAP
00
00
00
60
80
80
80
60
00
00
ENDCHAR
STARTCHAR U+0064
ENCODING 100
SWIDTH 500 0
DWIDTH 5
BBX 4 10 0 -2
BITMAP
00
10
10
70
90
90
90
70
00
00
ENDCHAR
STARTCHAR U+0065
ENCODING 101
SWIDTH 500 0
DWIDTH 5
BBX 4 10 0 -2
BITMAP
00
00
00
60
90
F0
80
60
00
00
ENDCHAR
STARTCHAR U+0066
ENCODING 102
SWIDTH 300 0
DWIDTH 3
BBX 2 10 0 -2
BITMAP
00
40
80
C0
80
80
80
80
00
00
ENDCHAR
STARTCHAR U+0067
ENCODING 103
SWIDTH 500 0
DWIDTH 5
BBX 4 10 0 -2
BITMAP
00
00
00
70
90
90
70
10
60
00
ENDCHAR
STARTCHAR U+0068
ENCODING 104
SWIDTH 500 0
DWIDTH 5
BBX 4 10 0 -2
BITMAP
00
80
80
E0
90
90
90
90
00
00
ENDCHAR
STARTCHAR U+0069
ENCODING 105
SWIDTH 200 0
DWIDTH 2
BBX 1 10 0 -2
BITMAP
00
80
00
80
80
80
80
80
00
00
ENDCHAR
STARTCHAR U+006A
ENCODING 106
SWIDTH 300 0
DWIDTH 3
BBX 2 10 0 -2
BITMAP
00
40
00
40
40
40
40
40
80
00
ENDCHAR
STARTCHAR U+006B
ENCODING 107
SWIDTH 500 0
DWIDTH 5
BBX 4 10 0 -2
BITMAP
00
80
80
90
A0
C0
A0
90
00
00
ENDCHAR
STARTCHAR U+006C
ENCODING 108
SWIDTH 200 0
DWIDTH 2
BBX 1 10 0 -2
BITMAP
00
80
80
80
80
80
80
80
00
00
ENDCHAR
STARTCHAR U+006D
ENCODING 109
SWIDTH 600 0
DWIDTH 6
BBX 5 10 0 -2
BITMAP
00
00
00
F0
A8
A8
A8
A8
00
00
ENDCHAR
STARTCHAR U+006E
ENCODING 110
SWIDTH 500 0
DWIDTH 5
BBX 4 10 0 -2
BITMAP
00
00
00
E0
90
90
90
90
00
00
ENDCHAR
STARTCHAR U+006F
ENCODING 111
SWIDTH 500 0
DWIDTH 5
BBX 4 10 0 -2
BITMAP
00
00
00
60
90
90
90
60
00
00
ENDCHAR
STARTCHAR U+0070
ENCODING 112
SWIDTH 500 0
DWIDTH 5
BBX 4 10 0 -2
BITMAP
00
00
00
E0
90
90
E0
80
80
00
ENDCHAR
STARTCHAR U+0071
ENCODING 113
SWIDTH 500 0
DWIDTH 5
BBX 4 10 0 -2
BITMAP
00
00
00
70
90
90
70
10
10
00
ENDCHAR
STARTCHAR U+0072
ENCODING 114
SWIDTH 400 0
DWIDTH 4
BBX 3 10 0 -2
BITMAP
00
00
00
A0
E0
80
80
80
00
00
ENDCHAR
STARTCHAR U+0073
ENCODING 115
SWIDTH 400 0
DWIDTH 4
BBX 3 10 0 -2
BITMAP
00
00
00
60
80
40
20
C0
00
00
ENDCHAR
STARTCHAR U+0074
ENCODING 116
SWIDTH 300 0
DWIDTH 3
BBX 2 10 0 -2
BITMAP
00
80
80
C0
80
80
80
40
00
00
ENDCHAR
STARTCHAR U+0075
ENCODING 117
SWIDTH 500 0
DWIDTH 5
BBX 4 10 0 -2
BITMAP
00
00
00
90
90
90
90
70
00
00
ENDCHAR
STARTCHAR U+0076
ENCODING 118
SWIDTH 600 0
DWIDTH 6
BBX 5 10 0 -2
BITMAP
00
00
00
88
88
50
50
20
00
00
ENDCHAR
STARTCHAR U+0077
ENCODING 119
SWIDTH 600 0
DWIDTH 6
BBX 5 10 0 -2
BITMAP
00
00
00
88
A8
A8
50
50
00
00
ENDCHAR
STARTCHAR U+0078
ENCODING 120
SWIDTH 500 0
DWIDTH 5
BBX 4 10 0 -2
BITMAP
00
00
00
90
90
60
90
90
00
00
ENDCHAR
STARTCHAR U+0079
ENCODING 121
SWIDTH 500 0
DWIDTH 5
BBX 4 10 0 -2
BITMAP
00
00
00
90
90
90
70
10
60
00
ENDCHAR
STARTCHAR U+007A
ENCODING 122
SWIDTH 500 0
DWIDTH 5
BBX 4 10 0 -2
BITMAP
00
00
00
F0
20
40
80
F0
00
00
ENDCHAR
STARTCHAR U+007B
ENCODING 123
SWIDTH 300 0
DWIDTH 3
BBX 2 10 0 -2
BITMAP
00
40
80
80
80
80
80
80
40
00
ENDCHAR
STARTCHAR U+007C
ENCODING 124
SWIDTH 200 0
DWIDTH 2
BBX 1 10 0 -2
BITMAP
00
80
80
80
80
80
80
80
80
00
ENDCHAR
STARTCHAR U+007D
ENCODING 125
SWIDTH 300 0
DWIDTH 3
BBX 2 10 0 -2
BITMAP
00
80
40
40
40
40
40
40
80
00
ENDCHAR
STARTCHAR U+007E
ENCODING 126
SWIDTH 700 0
DWIDTH 7
BBX 6 10 0 -2
BITMAP
00
00
00
00
64
98
00
00
00
00
ENDCHAR
STARTCHAR U+20AC
ENCODING 8364
SWIDTH 700 0
DWIDTH 7
BBX 6 10 0 -2
BITMAP
00
00
38
44
F8
F0
44
38
00
00
ENDCHAR
STARTCHAR U+00A3
ENCODING 163
SWIDTH 500 0
DWIDTH 5
BBX 4 10 0 -2
BITMAP
00
70
80
80
E0
40
40
F0
00
00
ENDCHAR
STARTCHAR U+00A5
ENCODING 165
SWIDTH 600 0
DWIDTH 6
BBX 5 10 0 -2
BITMAP
00
88
50
F8
20
70
20
20
00
00
ENDCHAR
STARTCHAR U+00A4
ENCODING 164
SWIDTH 500 0
DWIDTH 5
BBX 4 10 0 -2
BITMAP
00
00
90
60
90
90
60
90
00
00
ENDCHAR
STARTCHAR U+00BF
ENCODING 191
SWIDTH 500 0
DWIDTH 5
BBX 4 10 0 -2
BITMAP
00
20
00
20
20
40
80
70
00
00
ENDCHAR
STARTCHAR U+00A1
ENCODING 161
SWIDTH 200 0
DWIDTH 2
BBX 1 10 0 -2
BITMAP
00
80
00
80
80
80
80
80
00
00
ENDCHAR
STARTCHAR U+00A7
ENCODING 167
SWIDTH 400 0
DWIDTH 4
BBX 3 10 0 -2
BITMAP
00
40
A0
C0
A0
A0
60
A0
40
00
ENDCHAR
ENDFONT
